PathFileType	4	(X/Y/Z)	T1_P2_NoVision_Movement_2_0-733.trc
DataRate	CameraRate	NumFrames	NumMarkers	Units	OrigDataRate	OrigDataStartFrame	OrigNumFrames
60	60	7	27	m	60	91	733
Frame#	Time	RHip			RKnee			RAnkle			RBigToe			RSmallToe			RHeel			LHip			LKnee			LAnkle			LBigToe			LSmallToe			LHeel			Neck			Head			Nose			RShoulder			RElbow			RWrist			RThumb			RIndex			RPinky			LShoulder			LElbow			LWrist			LThumb			LIndex			LPinky		
		X1	Y1	Z1	X2	Y2	Z2	X3	Y3	Z3	X4	Y4	Z4	X5	Y5	Z5	X6	Y6	Z6	X7	Y7	Z7	X8	Y8	Z8	X9	Y9	Z9	X10	Y10	Z10	X11	Y11	Z11	X12	Y12	Z12	X13	Y13	Z13	X14	Y14	Z14	X15	Y15	Z15	X16	Y16	Z16	X17	Y17	Z17	X18	Y18	Z18	X19	Y19	Z19	X20	Y20	Z20	X21	Y21	Z21	X22	Y22	Z22	X23	Y23	Z23	X24	Y24	Z24	X25	Y25	Z25	X26	Y26	Z26	X27	Y27	Z27
92	1.5333333333333334	464.90826396676334	3635.2365788647407	557.164618369959	875.5841944541721	3671.7901626000303	571.064063591157	1244.0769243699751	3709.6333974121662	625.7578895489685	1329.060492573029	3624.8487166775913	607.8250712502232	1312.2250014617207	3647.193895461205	557.9944755914003	1263.254282206439	3687.7474775358983	628.4160930414105	461.19236511738484	3515.104216413955	739.1821180720575	878.9612208444454	3536.870266874573	746.3141227611707	1231.0576576602614	3593.140509816674	731.0890004874103	1331.4801149948714	3563.312974758289	685.9201100220962	1280.389040382833	3478.0153595605284	716.691450889144	1272.065617138677	3617.416594891012	724.1346746268972	-118.26124148356283	3551.789218853034	654.9535127367246	-377.9433259610394	3501.4181983967264	638.7296981289301	-231.20425437673038	3457.681877163458	611.2973925304015	-43.30502125157828	3644.8568206897194	546.2967185607171	198.62687100373296	3750.563878662281	490.7466639144495	422.36415476902886	3671.6515186210445	421.06791001811104	520.5862213578627	3551.7340764230394	398.9872059169291	532.809132615692	3561.4640100321226	397.3400093321642	546.7678178017685	3671.252329385661	404.3536721534986	-18.440471818570895	3547.3473034280287	848.0301425634283	233.66128927484746	3449.2272126686685	848.8626196655397	483.3146580237388	3460.5059123242145	864.5927462039878	585.8178603614167	3429.7472780032276	816.8766733880789	599.9369403685064	3415.7823846595247	827.8735829406365	615.0813952392125	3455.992380614822	901.534407443566
93	1.55	464.7252614445446	3636.3963736981345	557.5333184532883	875.6291899607736	3675.0057314094547	574.3642068741567	1245.9450560645694	3715.2401709081987	627.3324160012775	1330.4894670016088	3629.4847660503096	609.3695878809277	1312.877394454435	3648.75488726566	557.2508022124085	1264.3772023391289	3689.8235020073525	629.831821251472	461.93828180224796	3516.0031842879525	739.7076469200497	878.0899233273648	3533.3050468384226	745.2731668491896	1232.0462666420929	3593.120196480127	731.292749539629	1332.2209579747364	3563.964887068762	686.0876814547136	1280.4698990299362	3478.088739992593	716.7317435125178	1273.3801776912373	3617.9711631788696	724.6511543446899	-117.6760719066273	3553.637807108823	656.2068603451975	-377.9655441279945	3501.4585273676594	638.7264404173105	-230.51047130242176	3452.95196662511	609.9990680580742	-41.683143287387594	3646.4902093998703	546.8611078748519	199.39620417351486	3753.178073197282	492.8140309805642	422.3678353171099	3671.5504254680563	421.06083372408943	521.6034313270164	3551.155546670845	398.79776478764364	533.0702720441926	3560.4186125358087	396.783158971019	546.6874449610572	3671.2748002756794	404.42880118671343	-17.674188397444443	3546.6447819574532	847.6789009557563	233.49912190785	3449.02957657542	848.7262641655389	483.3226866752305	3460.5137015532396	864.6271568881691	585.8304257427602	3429.5042873506636	816.7715867537398	599.5163679853615	3415.4293282799645	827.7519878151778	615.5137450402644	3458.0917622245033	902.3134626365908
94	1.5666666666666669	464.5630858073865	3639.3834696537942	558.6361846441368	874.4469993846518	3677.2253268672016	576.2406157828713	1245.6310567237379	3716.2695018111594	627.8546340507376	1331.5767384599915	3629.23483211635	610.8669440607397	1313.279935576638	3647.8909502293272	556.7021374186015	1265.586059733294	3693.9507802449234	632.7103304064312	462.6835960191555	3517.6795558645285	740.5271518228507	877.0828435418235	3531.3424383791926	744.6089479231584	1232.9880661627737	3594.4557207282414	731.8046620571362	1332.1925169685549	3563.622924271849	685.9755007885666	1280.5061150516374	3478.1492918517883	716.7475321284344	1273.8865300637217	3618.32973724927	724.9351909281961	-117.60971512367247	3556.0339216661137	658.2975990609183	-377.9663235833563	3501.4634368537927	638.7141684567891	-230.09565454647935	3451.5619244194572	609.6195213586935	-40.33245174335502	3647.7166617952767	547.3209171345544	199.43578575410294	3755.0117209734744	494.1108171049698	422.3730538641249	3671.471875953235	421.06568438198167	522.633965481982	3549.7300007744107	398.1469363978538	533.5244026886324	3557.6136654009038	394.9136099777054	546.5443828760814	3671.7078692355044	404.5995551674546	-17.237987563576713	3546.2385501345343	847.4801243058322	233.51819860917124	3449.050703249827	848.7176563028088	483.33981641548894	3460.5285871551605	864.6510239186533	585.9721570238221	3429.402099397782	816.6470804720502	599.5062169461338	3415.4220532406084	827.5645392888124	616.0919781518619	3461.0341847163113	903.2132081288984
95	1.5833333333333333	465.4087290036742	3643.8399315783804	561.0861439212455	873.1224556933472	3674.6562628650604	575.9241876033702	1243.6790645020624	3711.834138192283	626.8675100863243	1331.6555246260784	3624.262109182885	611.0540676526261	1312.8881604418443	3644.417314647626	556.6451081646467	1266.1901417348004	3697.897614400734	635.6230085963753	463.91784995529986	3519.2849429480098	741.1972711374343	875.9329411020916	3530.838396903653	744.2601340981718	1233.7297092186927	3595.8081224441653	731.9948057643745	1331.3265466331936	3561.4936306384307	685.3665933382244	1280.4761608197323	3478.137565817647	716.7295270806933	1273.43244924597	3618.468604872479	724.9433527428372	-118.063665461319	3556.582499325926	660.0530552607058	-377.9450363829199	3501.4118627871685	638.6968113094634	-230.03439572490402	3453.2296701199953	610.1004554872025	-39.7724803051279	3648.2146254213358	547.5356105601162	199.1885277965013	3753.445935295376	492.8970383518679	422.42167081540026	3671.374680560968	421.0416906486418	523.6599678937555	3547.9101024598212	397.2571448414979	533.7576357870887	3553.985339254108	392.4176692773172	546.875490111579	3671.782211355096	404.52904506852343	-17.536946997186014	3546.528297299905	847.658555474153	233.15287294384905	3449.5323425759257	848.9959854442604	483.35355791315396	3460.5410129429665	864.6590701767068	586.0018252466139	3429.583355465759	816.642471467976	599.5760306223312	3415.7454150631793	827.1120029353516	616.3993578134481	3462.5819171040316	903.6682678888371
96	1.6	466.90853906733287	3647.9174052565795	564.7924874310247	871.9764728721555	3666.9177552127735	573.8336629983304	1242.0259041484421	3706.0586468309734	625.3174821089176	1330.5978908451166	3617.8646732929005	610.0486139218374	1310.88289487507	3638.4256662473144	555.7578209863749	1265.319336555584	3699.1179917300437	636.5517124476786	465.0454782757035	3520.041179670894	741.3885686473968	875.1125228466399	3531.0840070605573	744.1309503016987	1233.6685560613	3596.3844092286135	731.7987182076982	1329.9890584183845	3558.142770704921	684.4317639169881	1280.391088528082	3478.059030676911	716.6974277288689	1272.3305170277881	3618.7015853329217	724.9379860923717	-118.35879344224341	3553.8648080180083	660.7969837308428	-377.9173493741072	3501.3099494757835	638.6714096523401	-230.08258695349565	3454.694642513011	610.5421982626261	-39.860682285800124	3648.162279128473	547.5509149446751	199.33181758853888	3749.3661778314536	490.06776668325597	422.5046986373645	3671.2730686761943	420.9929585304458	524.0181492927348	3546.4803881273992	396.5588328363151	533.7701966768967	3552.138353797168	391.1477203299382	547.3119231375	3671.1803825335164	404.2709982631376	-18.625830123777927	3547.5864655007917	848.2661865992807	232.0314823441307	3450.592172960995	849.6600252668177	483.35250709824646	3460.5517382863236	864.6619074024063	585.6671328397173	3430.3232351539914	817.0408856085389	599.5785037872138	3416.269207899048	826.5279238910914	616.1604581604784	3461.3908376181616	903.1739510947637
97	1.6166666666666667	467.96514991922743	3648.940266925227	568.3520070893888	870.5046800325721	3656.4445426184793	570.9456602837878	1241.515143137914	3702.584333687419	624.2402891040956	1329.7544842544762	3613.178864848469	608.8700680316016	1307.5609961123055	3631.5161248698246	553.2251521361328	1263.4603698397566	3696.531066152338	634.6093663800417	465.5310577531043	3519.946399387263	741.1773923267797	875.4679575810363	3531.8002667073633	744.3400491291048	1232.9989468845167	3596.4508237465275	731.585043957901	1329.2871933982278	3556.3667611401993	683.9657487869208	1280.3168885784994	3477.98752555255	716.6849816610492	1271.4571124526888	3619.250830090411	725.173909350657	-118.00246054502385	3549.81337986345	661.2503491659585	-377.9003385236916	3501.191342167869	638.643516468537	-230.06583327844444	3453.642866881238	610.2950934983269	-40.36572708335611	3647.7477069214606	547.4242469728983	199.36349983811343	3746.317656525508	488.147295817191	422.46232792741444	3671.177195230871	420.93620600768503	523.1933772743087	3546.0446352629574	396.4872523929087	533.8291281065116	3553.5310791652664	392.1972974634148	547.0321241936226	3669.130389606192	403.8987866373693	-20.065038531377425	3548.992184266259	849.058594051834	230.49097093055218	3451.7700778493745	850.462091900949	483.3367396172349	3460.5520073064145	864.6626383319185	584.8041222737154	3431.7024688485308	817.9594993737676	599.5399018738437	3416.685763010381	826.4055593943453	615.8982407182265	3460.1681601084256	902.680260951339
98	1.6333333333333333	467.9172984235767	3646.008616010004	570.041167069526	868.8160438724581	3646.708761801552	568.3189248251622	1241.4446214342329	3701.2269137345156	623.5311398275301	1330.097909036751	3610.945952798234	608.0869265412028	1304.2838935048683	3626.0378272119483	550.071133944218	1262.1058319698882	3691.991643803947	631.3296218908945	465.5323405582053	3520.0239776569306	741.2614504032829	876.828421917842	3532.5497392351535	744.7687418897182	1232.7181252642843	3596.2576668854485	731.4028493144746	1329.9614442943562	3558.115063759777	684.5130056465114	1280.318918838097	3477.9821108614633	716.7071660659803	1271.6654573135204	3619.7362355636456	725.4725393725496	-117.33713804200806	3547.1501795119093	661.8961637391565	-377.89524190426516	3501.090291582469	638.6283006496177	-229.9668602507895	3450.2261362698246	609.3930274193963	-41.028771137319126	3647.158052751215	547.2141965135424	198.40463225406057	3747.207280103929	489.0124195097077	422.0122830734347	3671.019746246374	420.8477993549898	521.4189820166498	3546.6460704529272	397.25705275641974	533.8210444887209	3556.541594156855	394.3819386023106	545.7623391540749	3664.611571492983	403.25172386923384	-21.140358105786923	3550.0604026477904	849.6247473741023	229.39407514448573	3452.440110224329	851.0076031384745	483.3189892522412	3460.53991397957	864.6629335243133	583.7238935467979	3433.2254270723256	819.0656870079645	599.6312598686729	3416.7936124626717	827.076810071328	616.0797252755402	3461.271419629086	903.0685442559685
